<?xml version="1.0" standalone="no"?>
 <!DOCTYPE svg PUBLIC "-//W3C//DTD SVG 1.1//EN" 
 "http://www.w3.org/Graphics/SVG/1.1/DTD/svg11.dtd"> 
<svg xmlns="http://www.w3.org/2000/svg" version="1.1" 
    width="4.82854cm" height="4.3561cm" viewBox="0 0 19010 17150 ">
<title>SVG Picture created as irda-timer-v3--brd.svg date 2014/05/02 12:09:50 </title>
  <desc>Picture generated by PCBNEW </desc>
<g style="fill:#000000; fill-opacity:1;stroke:#000000; stroke-opacity:1;
stroke-linecap:round; stroke-linejoin:round; "
 transform="translate(0 0) scale(1 1)">
</g>
<g style="fill:#FFFF00; fill-opacity:0.0; 
stroke:#FFFF00; stroke-width:150; stroke-opacity:1; 
stroke-linecap:round; stroke-linejoin:round;">
<path d="M18852 17075
L18852 75
" />
</g>
<g style="fill:#A00000; fill-opacity:0.0; 
stroke:#A00000; stroke-width:80; stroke-opacity:1; 
stroke-linecap:round; stroke-linejoin:round;">
<path d="M11094 15486
L10494 15486
" />
<path d="M11094 15296
L10694 15296
" />
<path d="M10809 15296
L10752 15277
L10723 15258
L10694 15220
L10694 15182
" />
<path d="M11094 15048
L10494 15048
L10494 14953
L10523 14896
L10580 14858
L10637 14839
L10752 14820
L10837 14820
L10952 14839
L11009 14858
L11066 14896
L11094 14953
L11094 15048
" />
<path d="M10923 14667
L10923 14477
" />
<path d="M11094 14705
L10494 14572
L11094 14439
" />
<path d="M10866 14305
L10866 14001
" />
<path d="M10494 13867
L10494 13639
" />
<path d="M11094 13753
L10494 13753
" />
<path d="M11094 13505
L10694 13505
" />
<path d="M10494 13505
L10523 13525
L10552 13505
L10523 13486
L10494 13505
L10552 13505
" />
<path d="M11094 13315
L10694 13315
" />
<path d="M10752 13315
L10723 13296
L10694 13258
L10694 13201
L10723 13163
L10780 13144
L11094 13144
" />
<path d="M10780 13144
L10723 13125
L10694 13086
L10694 13029
L10723 12991
L10780 12972
L11094 12972
" />
<path d="M11066 12629
L11094 12667
L11094 12744
L11066 12782
L11009 12801
L10780 12801
L10723 12782
L10694 12744
L10694 12667
L10723 12629
L10780 12610
L10837 12610
L10894 12801
" />
<path d="M11094 12439
L10694 12439
" />
<path d="M10809 12439
L10752 12420
L10723 12401
L10694 12363
L10694 12325
" />
<path d="M10866 12191
L10866 11886
" />
<path d="M10494 11753
L11094 11620
L10494 11486
" />
<path d="M10494 11391
L10494 11144
L10723 11277
L10723 11220
L10752 11182
L10780 11163
L10837 11144
L10980 11144
L11037 11163
L11066 11182
L11094 11220
L11094 11334
L11066 11372
L11037 11391
" />
<path d="M11986 14382
L12014 14420
L12014 14496
L11986 14534
L11929 14553
L11700 14553
L11643 14534
L11614 14496
L11614 14420
L11643 14382
L11700 14363
L11757 14363
L11814 14553
" />
<path d="M11986 14039
L12014 14077
L12014 14153
L11986 14191
L11929 14210
L11700 14210
L11643 14191
L11614 14153
L11614 14077
L11643 14039
L11700 14020
L11757 14020
L11814 14210
" />
<path d="M12014 13886
L11614 13677
" />
<path d="M11614 13886
L12014 13677
" />
<path d="M11614 13525
L12214 13525
" />
<path d="M11643 13525
L11614 13486
L11614 13410
L11643 13372
L11672 13353
L11729 13334
L11900 13334
L11957 13353
L11986 13372
L12014 13410
L12014 13486
L11986 13525
" />
<path d="M12014 13163
L11614 13163
" />
<path d="M11729 13163
L11672 13144
L11643 13125
L11614 13086
L11614 13048
" />
<path d="M11986 12763
L12014 12801
L12014 12877
L11986 12915
L11929 12934
L11700 12934
L11643 12915
L11614 12877
L11614 12801
L11643 12763
L11700 12744
L11757 12744
L11814 12934
" />
<path d="M11986 12591
L12014 12553
L12014 12477
L11986 12439
L11929 12420
L11900 12420
L11843 12439
L11814 12477
L11814 12534
L11786 12572
L11729 12591
L11700 12591
L11643 12572
L11614 12534
L11614 12477
L11643 12439
" />
<path d="M11986 12267
L12014 12229
L12014 12153
L11986 12115
L11929 12096
L11900 12096
L11843 12115
L11814 12153
L11814 12210
L11786 12248
L11729 12267
L11700 12267
L11643 12248
L11614 12210
L11614 12153
L11643 12115
" />
</g>
<g style="fill:#FFFF00; fill-opacity:0.0; 
stroke:#FFFF00; stroke-width:150; stroke-opacity:1; 
stroke-linecap:round; stroke-linejoin:round;">
<path d="M5852 75
L18852 75
" />
<path d="M5852 17075
L18852 17075
" />
<path d="M5852 75
L5852 17075
" />
</g>
<g style="fill:#00A0A0; fill-opacity:0.0; 
stroke:#00A0A0; stroke-width:120; stroke-opacity:1; 
stroke-linecap:round; stroke-linejoin:round;">
<path d="M17480 4117
L17509 4032
L17537 4003
L17594 3975
L17680 3975
L17737 4003
L17766 4032
L17794 4089
L17794 4317
L17194 4317
L17194 4117
L17223 4060
L17252 4032
L17309 4003
L17366 4003
L17423 4032
L17452 4060
L17480 4117
L17480 4317
" />
<path d="M17766 3489
L17794 3546
L17794 3660
L17766 3717
L17709 3746
L17480 3746
L17423 3717
L17394 3660
L17394 3546
L17423 3489
L17480 3460
L17537 3460
L17594 3746
" />
<path d="M17766 2975
L17794 3032
L17794 3146
L17766 3203
L17709 3232
L17480 3232
L17423 3203
L17394 3146
L17394 3032
L17423 2975
L17480 2946
L17537 2946
L17594 3232
" />
<path d="M17394 2689
L17994 2689
" />
<path d="M17423 2689
L17394 2632
L17394 2517
L17423 2460
L17452 2432
L17509 2403
L17680 2403
L17737 2432
L17766 2460
L17794 2517
L17794 2632
L17766 2689
" />
<path d="M2894 12467
L2894 12953
L2923 13010
L2952 13039
L3009 13067
L3123 13067
L3180 13039
L3209 13010
L3237 12953
L3237 12467
" />
<path d="M3494 13039
L3580 13067
L3723 13067
L3780 13039
L3809 13010
L3837 12953
L3837 12896
L3809 12839
L3780 12810
L3723 12782
L3609 12753
L3552 12725
L3523 12696
L3494 12639
L3494 12582
L3523 12525
L3552 12496
L3609 12467
L3752 12467
L3837 12496
" />
<path d="M4294 12753
L4380 12782
L4409 12810
L4437 12867
L4437 12953
L4409 13010
L4380 13039
L4323 13067
L4094 13067
L4094 12467
L4294 12467
L4352 12496
L4380 12525
L4409 12582
L4409 12639
L4380 12696
L4352 12725
L4294 12753
L4094 12753
" />
<path d="M4552 13125
L5009 13125
" />
<path d="M5123 12896
L5409 12896
" />
<path d="M5066 13067
L5266 12467
L5466 13067
" />
<path d="M5666 12839
L6123 12839
" />
<path d="M6409 13067
L6409 12467
L6609 12896
L6809 12467
L6809 13067
" />
<path d="M3694 14467
L3894 15067
L4094 14467
" />
<path d="M4266 14896
L4552 14896
" />
<path d="M4209 15067
L4409 14467
L4609 15067
" />
<path d="M5094 15067
L4809 15067
L4809 14467
" />
<path d="M5380 14467
L5380 14610
" />
<path d="M5237 14553
L5380 14610
L5523 14553
" />
<path d="M5294 14725
L5380 14610
L5466 14725
" />
<path d="M5837 14467
L5837 14610
" />
<path d="M5694 14553
L5837 14610
L5980 14553
" />
<path d="M5752 14725
L5837 14610
L5923 14725
" />
<path d="M8123 15339
L8580 15339
" />
<path d="M8352 15567
L8352 15110
" />
<path d="M8123 12339
L8580 12339
" />
</g>
<g style="fill:#00A0A0; fill-opacity:0.0; 
stroke:#00A0A0; stroke-width:106; stroke-opacity:1; 
stroke-linecap:round; stroke-linejoin:round;">
<path d="M6887 9099
L6182 9099
" />
<path d="M6887 8898
L6417 8898
" />
<path d="M6551 8898
L6484 8877
L6450 8857
L6417 8817
L6417 8776
" />
<path d="M6887 8635
L6182 8635
L6182 8534
L6215 8474
L6283 8433
L6350 8413
L6484 8393
L6585 8393
L6719 8413
L6786 8433
L6853 8474
L6887 8534
L6887 8635
" />
<path d="M6685 8231
L6685 8029
" />
<path d="M6887 8272
L6182 8130
L6887 7989
" />
</g>
<g style="fill:#00A0A0; fill-opacity:0.0; 
stroke:#00A0A0; stroke-width:120; stroke-opacity:1; 
stroke-linecap:round; stroke-linejoin:round;">
<path d="M8344 7732
L7944 7417
" />
<path d="M7944 7732
L8344 7417
" />
<path d="M8116 8803
L8116 8346
" />
<path d="M8116 9803
L8116 9346
" />
<path d="M8344 9575
L7887 9575
" />
</g>
<g style="fill:#00A0A0; fill-opacity:0.0; 
stroke:#00A0A0; stroke-width:107; stroke-opacity:1; 
stroke-linecap:round; stroke-linejoin:round;">
<path d="M6195 4757
L6748 4757
L6813 4737
L6845 4717
L6878 4676
L6878 4594
L6845 4553
L6813 4533
L6748 4513
L6195 4513
" />
<path d="M6683 4329
L6683 4125
" />
<path d="M6878 4370
L6195 4227
L6878 4085
" />
<path d="M6878 3697
L6553 3840
" />
<path d="M6878 3942
L6195 3942
L6195 3779
L6227 3738
L6260 3718
L6325 3697
L6423 3697
L6488 3718
L6520 3738
L6553 3779
L6553 3942
" />
<path d="M6195 3575
L6195 3331
" />
<path d="M6878 3453
L6195 3453
" />
</g>
<g style="fill:#00A0A0; fill-opacity:0.0; 
stroke:#00A0A0; stroke-width:120; stroke-opacity:1; 
stroke-linecap:round; stroke-linejoin:round;">
<path d="M7744 4746
L7744 4403
" />
<path d="M8344 4575
L7744 4575
" />
<path d="M8344 3389
L8059 3589
" />
<path d="M8344 3732
L7744 3732
L7744 3503
L7773 3446
L7802 3417
L7859 3389
L7944 3389
L8002 3417
L8030 3446
L8059 3503
L8059 3732
" />
<path d="M8116 5803
L8116 5346
" />
<path d="M8116 2803
L8116 2346
" />
<path d="M8344 2575
L7887 2575
" />
</g>
<g style="fill:#00A0A0; fill-opacity:0.0; 
stroke:#00A0A0; stroke-width:106; stroke-opacity:1; 
stroke-linecap:round; stroke-linejoin:round;">
<path d="M15806 6360
L15806 5655
L15968 5655
L16008 5688
L16028 5722
L16049 5789
L16049 5890
L16028 5957
L16008 5991
L15968 6024
L15806 6024
" />
<path d="M16230 6360
L16230 5655
L16473 6360
L16473 5655
" />
<path d="M16675 6360
L16675 5655
L16836 5655
L16876 5688
L16897 5722
L16917 5789
L16917 5890
L16897 5957
L16876 5991
L16836 6024
L16675 6024
" />
</g>
<g style="fill:#00A0A0; fill-opacity:0.0; 
stroke:#00A0A0; stroke-width:113; stroke-opacity:1; 
stroke-linecap:round; stroke-linejoin:round;">
</g>
<g style="fill:#00A0A0; fill-opacity:0.0; 
stroke:#00A0A0; stroke-width:112.5; stroke-opacity:1; 
stroke-linecap:round; stroke-linejoin:round;">
<path d="M11423 10425
L11423 10210
" />
<path d="M11594 10467
L10994 10317
L11594 10167
" />
<path d="M11194 10082
L11194 9910
" />
<path d="M10994 10017
L11509 10017
L11566 9996
L11594 9953
L11594 9910
" />
<path d="M11594 9760
L11194 9760
" />
<path d="M11252 9760
L11223 9739
L11194 9696
L11194 9632
L11223 9589
L11280 9567
L11594 9567
" />
<path d="M11280 9567
L11223 9546
L11194 9503
L11194 9439
L11223 9396
L11280 9375
L11594 9375
" />
<path d="M11566 8989
L11594 9032
L11594 9117
L11566 9160
L11509 9182
L11280 9182
L11223 9160
L11194 9117
L11194 9032
L11223 8989
L11280 8967
L11337 8967
L11394 9182
" />
<path d="M11194 8582
L11680 8582
L11737 8603
L11766 8625
L11794 8667
L11794 8732
L11766 8775
" />
<path d="M11566 8582
L11594 8625
L11594 8710
L11566 8753
L11537 8775
L11480 8796
L11309 8796
L11252 8775
L11223 8753
L11194 8710
L11194 8625
L11223 8582
" />
<path d="M11594 8175
L11280 8175
L11223 8196
L11194 8239
L11194 8325
L11223 8367
" />
<path d="M11566 8175
L11594 8217
L11594 8325
L11566 8367
L11509 8389
L11452 8389
L11394 8367
L11366 8325
L11366 8217
L11337 8175
" />
<path d="M11252 7896
L11223 7939
L11194 7960
L11137 7982
L11109 7982
L11052 7960
L11023 7939
L10994 7896
L10994 7810
L11023 7767
L11052 7746
L11109 7725
L11137 7725
L11194 7746
L11223 7767
L11252 7810
L11252 7896
L11280 7939
L11309 7960
L11366 7982
L11480 7982
L11537 7960
L11566 7939
L11594 7896
L11594 7810
L11566 7767
L11537 7746
L11480 7725
L11366 7725
L11309 7746
L11280 7767
L11252 7810
" />
</g>
<g style="fill:#00A0A0; fill-opacity:0.0; 
stroke:#00A0A0; stroke-width:113; stroke-opacity:1; 
stroke-linecap:round; stroke-linejoin:round;">
</g>
<g style="fill:#00A0A0; fill-opacity:0.0; 
stroke:#00A0A0; stroke-width:112.5; stroke-opacity:1; 
stroke-linecap:round; stroke-linejoin:round;">
</g>
<g style="fill:#00A0A0; fill-opacity:0.0; 
stroke:#00A0A0; stroke-width:113; stroke-opacity:1; 
stroke-linecap:round; stroke-linejoin:round;">
</g>
<g style="fill:#00A0A0; fill-opacity:0.0; 
stroke:#00A0A0; stroke-width:80; stroke-opacity:1; 
stroke-linecap:round; stroke-linejoin:round;">
<path d="M15885 8836
L15885 9122
L15866 9179
L15828 9217
L15771 9236
L15732 9236
" />
<path d="M16018 8836
L16247 8836
" />
<path d="M16132 9236
L16132 8836
" />
<path d="M16361 9122
L16552 9122
" />
<path d="M16323 9236
L16456 8836
L16590 9236
" />
<path d="M16932 8855
L16894 8836
L16837 8836
L16780 8855
L16742 8894
L16723 8932
L16704 9008
L16704 9065
L16723 9141
L16742 9179
L16780 9217
L16837 9236
L16875 9236
L16932 9217
L16952 9198
L16952 9065
L16875 9065
" />
</g>
<g style="fill:#00A0A0; fill-opacity:0.0; 
stroke:#00A0A0; stroke-width:125; stroke-opacity:1; 
stroke-linecap:round; stroke-linejoin:round;">
<circle cx="16352" cy="3575" r="2500" /> 
</g>
<g style="fill:#00A0A0; fill-opacity:0.0; 
stroke:#00A0A0; stroke-width:150; stroke-opacity:1; 
stroke-linecap:round; stroke-linejoin:round;">
<path d="M7458 11463
L175 11463
" />
<path d="M175 16187
L7458 16187
" />
<path d="M6671 11463
L6671 11758
" />
<path d="M6671 16187
L6671 15892
" />
<path d="M2930 14514
L2241 14514
" />
<path d="M2930 15498
L2930 14514
" />
<path d="M2241 15498
L2930 15498
" />
<path d="M2241 14514
L2241 15498
" />
<path d="M2241 14514
L2241 15498
" />
<path d="M2241 15498
L2930 15498
" />
<path d="M2930 15498
L2930 14514
" />
<path d="M2930 14514
L2241 14514
" />
<path d="M2930 14514
L2241 14514
" />
<path d="M2930 15498
L2930 14514
" />
<path d="M2241 15498
L2930 15498
" />
<path d="M2241 14514
L2241 15498
" />
<path d="M2241 14514
L2241 15498
" />
<path d="M2241 15498
L2930 15498
" />
<path d="M2930 15498
L2930 14514
" />
<path d="M2930 14514
L2241 14514
" />
<path d="M2931 12152
L2242 12152
" />
<path d="M2931 13136
L2931 12152
" />
<path d="M2242 13136
L2931 13136
" />
<path d="M2242 12152
L2242 13136
" />
<path d="M2242 12152
L2242 13136
" />
<path d="M2242 13136
L2931 13136
" />
<path d="M2931 13136
L2931 12152
" />
<path d="M2931 12152
L2242 12152
" />
<path d="M2931 12152
L2242 12152
" />
<path d="M2931 13136
L2931 12152
" />
<path d="M2242 13136
L2931 13136
" />
<path d="M2242 12152
L2242 13136
" />
<path d="M2242 12152
L2242 13136
" />
<path d="M2242 13136
L2931 13136
" />
<path d="M2931 13136
L2931 12152
" />
<path d="M2931 12152
L2242 12152
" />
<path d="M5884 16187
L5884 11463
" />
<path d="M7459 11463
L7459 16187
" />
<path d="M175 16187
L175 11463
" />
<path d="M7102 7575 A1414.21 1414.21 0.0 0 0 7102 9575 " />
</g>
<g style="fill:#00A0A0; fill-opacity:0.0; 
stroke:#00A0A0; stroke-width:120; stroke-opacity:1; 
stroke-linecap:round; stroke-linejoin:round;">
<path d="M7102 7075
L8102 7075
" />
<path d="M8102 7075
L8102 10075
" />
<path d="M8102 10075
L7102 10075
" />
<path d="M7102 10075
L7102 7075
" />
<path d="M8102 8075
L7102 8075
" />
<path d="M8102 2075
L8102 2075
" />
<path d="M7102 2075
L8102 2075
" />
<path d="M8102 2075
L8102 2075
" />
<path d="M8102 2075
L8102 6075
" />
<path d="M8102 6075
L7102 6075
" />
<path d="M7102 6075
L7102 2075
" />
<path d="M7102 3075
L8102 3075
" />
</g>
<g style="fill:#00A0A0; fill-opacity:0.0; 
stroke:#00A0A0; stroke-width:150; stroke-opacity:1; 
stroke-linecap:round; stroke-linejoin:round;">
<path d="M17352 7075
L17252 6775
" />
<path d="M17252 6775
L15552 6775
" />
<path d="M15552 6775
L15452 6775
" />
<path d="M15452 6775
L15352 7075
" />
<path d="M17352 7075
L15352 7075
" />
<path d="M17352 7075
L16352 7075
" />
<path d="M16352 8075 A1000 1000 0.0 0 0 17352 7075 " />
<path d="M15352 7075 A1000 1000 0.0 0 0 16352 8075 " />
<path d="M12352 1575
L12352 16575
" />
<path d="M12352 16575
L10352 16575
" />
<path d="M10352 16575
L10352 1575
" />
<path d="M10352 1575
L12352 1575
" />
<path d="M11852 1575
L11852 2075
" />
<path d="M11852 2075
L10852 2075
" />
<path d="M10852 2075
L10852 1575
" />
<path d="M17852 16575
L14852 16575
" />
<path d="M14852 16575
L14852 8575
" />
<path d="M14852 8575
L17852 8575
" />
<path d="M17852 8575
L17852 11575
" />
<path d="M17852 13575
L17852 16575
" />
</g>
<g style="fill:#808000; fill-opacity:0.0; 
stroke:#808000; stroke-width:39.3701; stroke-opacity:1; 
stroke-linecap:round; stroke-linejoin:round;">
</g>
<g style="fill:#808000; fill-opacity:1.0; 
stroke:#808000; stroke-width:39.3701; stroke-opacity:1; 
stroke-linecap:round; stroke-linejoin:round;">
<polyline style="fill-rule:evenodd;"
points="16091,1814
16612,1814
16612,2335
16091,2335
16091,1814
" /> 
<circle cx="16352" cy="5075" r="260.315" /> 
<circle cx="7852" cy="15203" r="255.315" /> 
<circle cx="7852" cy="14219" r="255.315" /> 
<circle cx="7852" cy="13431" r="255.315" /> 
<polyline style="fill-rule:evenodd;"
points="8107,12191
8107,12702
7596,12702
7596,12191
8107,12191
" /> 
</g>
<g style="fill:#808000; fill-opacity:1.0; 
stroke:#808000; stroke-width:700; stroke-opacity:1; 
stroke-linecap:round; stroke-linejoin:round;">
<path d="M7415 16225
L6715 16225
" />
<path d="M7415 11425
L6715 11425
" />
</g>
<g style="fill:#808000; fill-opacity:1.0; 
stroke:#808000; stroke-width:39.3701; stroke-opacity:1; 
stroke-linecap:round; stroke-linejoin:round;">
<circle cx="7065" cy="14711" r="177.315" /> 
<circle cx="7065" cy="12939" r="177.315" /> 
<polyline style="fill-rule:evenodd;"
points="7346,7319
7857,7319
7857,7830
7346,7830
7346,7319
" /> 
<circle cx="7602" cy="8575" r="255.315" /> 
<circle cx="7602" cy="9575" r="255.315" /> 
<polyline style="fill-rule:evenodd;"
points="7346,2319
7857,2319
7857,2830
7346,2830
7346,2319
" /> 
<circle cx="7602" cy="3575" r="255.315" /> 
<circle cx="7602" cy="4575" r="255.315" /> 
<circle cx="7602" cy="5575" r="255.315" /> 
<polyline style="fill-rule:evenodd;"
points="17607,6819
17607,7330
17096,7330
17096,6819
17607,6819
" /> 
<circle cx="16352" cy="7075" r="255.315" /> 
<circle cx="15352" cy="7075" r="255.315" /> 
<circle cx="9852" cy="3575" r="255.315" /> 
<circle cx="9852" cy="4575" r="255.315" /> 
<circle cx="9852" cy="5575" r="255.315" /> 
<circle cx="9852" cy="6575" r="255.315" /> 
<circle cx="9852" cy="7575" r="255.315" /> 
<circle cx="9852" cy="8575" r="255.315" /> 
<circle cx="9852" cy="9575" r="255.315" /> 
<circle cx="9852" cy="10575" r="255.315" /> 
<circle cx="9852" cy="11575" r="255.315" /> 
<circle cx="9852" cy="12575" r="255.315" /> 
<circle cx="9852" cy="13575" r="255.315" /> 
<circle cx="9852" cy="14575" r="255.315" /> 
<circle cx="9852" cy="15575" r="255.315" /> 
<polyline style="fill-rule:evenodd;"
points="9596,2319
10107,2319
10107,2830
9596,2830
9596,2319
" /> 
<circle cx="12852" cy="15575" r="255.315" /> 
<circle cx="12852" cy="14575" r="255.315" /> 
<circle cx="12852" cy="13575" r="255.315" /> 
<circle cx="12852" cy="12575" r="255.315" /> 
<circle cx="12852" cy="11575" r="255.315" /> 
<circle cx="12852" cy="10575" r="255.315" /> 
<circle cx="12852" cy="9575" r="255.315" /> 
<circle cx="12852" cy="8575" r="255.315" /> 
<circle cx="12852" cy="7575" r="255.315" /> 
<circle cx="12852" cy="6575" r="255.315" /> 
<circle cx="12852" cy="5575" r="255.315" /> 
<circle cx="12852" cy="4575" r="255.315" /> 
<circle cx="12852" cy="3575" r="255.315" /> 
<circle cx="12852" cy="2575" r="255.315" /> 
<polyline style="fill-rule:evenodd;"
points="17132,14855
16571,14855
16571,14294
17132,14294
17132,14855
" /> 
<circle cx="15852" cy="14575" r="280.315" /> 
<circle cx="16852" cy="13575" r="280.315" /> 
<circle cx="15852" cy="13575" r="280.315" /> 
<circle cx="16852" cy="12575" r="280.315" /> 
<circle cx="15852" cy="12575" r="280.315" /> 
<circle cx="16852" cy="11575" r="280.315" /> 
<circle cx="15852" cy="11575" r="280.315" /> 
<circle cx="16852" cy="10575" r="280.315" /> 
<circle cx="15852" cy="10575" r="280.315" /> 
</g>
<g style="fill:#00A000; fill-opacity:1.0; 
stroke:#00A000; stroke-width:600; stroke-opacity:1; 
stroke-linecap:round; stroke-linejoin:round;">
<path d="M17352 7075
L17352 5075
" />
<path d="M17352 5075
L16352 5075
" />
</g>
<g style="fill:#A00000; fill-opacity:1.0; 
stroke:#A00000; stroke-width:600; stroke-opacity:1; 
stroke-linecap:round; stroke-linejoin:round;">
<path d="M15352 6075
L15352 7075
" />
<path d="M14602 5325
L15352 6075
" />
<path d="M14602 1575
L14602 5325
" />
<path d="M14102 1075
L14602 1575
" />
<path d="M9102 1075
L14102 1075
" />
<path d="M8852 1325
L9102 1075
" />
<path d="M8852 5575
L8852 1325
" />
<path d="M7852 12447
L8230 12447
" />
<path d="M8852 11825
L8852 9575
" />
<path d="M8230 12447
L8852 11825
" />
<path d="M7602 5575
L8852 5575
" />
<path d="M7602 8575
L8852 8575
" />
</g>
<g style="fill:#00A000; fill-opacity:1.0; 
stroke:#00A000; stroke-width:600; stroke-opacity:1; 
stroke-linecap:round; stroke-linejoin:round;">
<path d="M9852 6575
L8602 6575
" />
<path d="M8602 6575
L7602 7575
" />
<path d="M9852 4575
L7602 4575
" />
<path d="M7602 3575
L9852 3575
" />
</g>
<g style="fill:#00A000; fill-opacity:1.0; 
stroke:#00A000; stroke-width:400; stroke-opacity:1; 
stroke-linecap:round; stroke-linejoin:round;">
<path d="M16352 7075
L16352 6075
" />
</g>
<g style="fill:#00A000; fill-opacity:1.0; 
stroke:#00A000; stroke-width:600; stroke-opacity:1; 
stroke-linecap:round; stroke-linejoin:round;">
<path d="M13852 15575
L12852 15575
" />
<path d="M14352 15075
L13852 15575
" />
<path d="M14352 6075
L14352 15075
" />
</g>
<g style="fill:#00A000; fill-opacity:1.0; 
stroke:#00A000; stroke-width:400; stroke-opacity:1; 
stroke-linecap:round; stroke-linejoin:round;">
<path d="M16352 6075
L15852 6075
" />
<path d="M15852 6075
L15352 6075
" />
<path d="M15352 6075
L14352 6075
" />
</g>
<g style="fill:#A00000; fill-opacity:1.0; 
stroke:#A00000; stroke-width:400; stroke-opacity:1; 
stroke-linecap:round; stroke-linejoin:round;">
<path d="M12852 14575
L13852 14575
" />
<path d="M13852 16575
L17852 16575
" />
<path d="M13852 14575
L13852 16575
" />
<path d="M17852 16575
L17852 13575
" />
<path d="M17852 13575
L16852 13575
" />
<path d="M17852 13575
L16852 13575
" />
<path d="M17852 16575
L17852 13575
" />
</g>
<g style="fill:#A00000; fill-opacity:1.0; 
stroke:#A00000; stroke-width:600; stroke-opacity:1; 
stroke-linecap:round; stroke-linejoin:round;">
<path d="M8852 9575
L9852 9575
" />
<path d="M8852 7575
L8852 8575
" />
<path d="M8852 8575
L8852 9075
" />
<path d="M8852 9075
L8852 9575
" />
<path d="M8852 5575
L8852 6575
" />
<path d="M8852 6575
L8852 7575
" />
</g>
<g style="fill:#A00000; fill-opacity:1.0; 
stroke:#A00000; stroke-width:400; stroke-opacity:1; 
stroke-linecap:round; stroke-linejoin:round;">
<path d="M12852 12575
L14852 12575
" />
<path d="M16852 9575
L16852 10575
" />
<path d="M14852 9575
L16852 9575
" />
<path d="M14852 12575
L14852 9575
" />
<path d="M12852 13575
L14852 13575
" />
<path d="M14852 15575
L16852 15575
" />
<path d="M14852 13575
L14852 15575
" />
<path d="M16852 15575
L16852 14575
" />
<path d="M16852 15575
L16852 14575
" />
<path d="M12852 11575
L13852 11575
" />
<path d="M17852 11575
L16852 11575
" />
<path d="M17852 8575
L17852 11575
" />
<path d="M13852 8575
L17852 8575
" />
<path d="M13852 11575
L13852 8575
" />
</g>
<g style="fill:#00A000; fill-opacity:1.0; 
stroke:#00A000; stroke-width:600; stroke-opacity:1; 
stroke-linecap:round; stroke-linejoin:round;">
<path d="M15852 13575
L15852 9075
" />
<path d="M15852 9075
L15352 8575
" />
<path d="M15352 8575
L15352 7075
" />
<path d="M18352 4575
L18352 575
" />
<path d="M9852 575
L9852 2575
" />
<path d="M18352 575
L9852 575
" />
<path d="M16852 12575
L18352 12575
" />
<path d="M18352 12575
L18352 4575
" />
<path d="M7852 15203
L8474 15203
" />
<path d="M8852 10075
L8352 9575
" />
<path d="M8852 14825
L8852 10075
" />
<path d="M8474 15203
L8852 14825
" />
<path d="M8352 9575
L7602 9575
" />
<path d="M11352 1575
L16352 1575
" />
<path d="M16352 1575
L16352 2075
" />
<path d="M7602 2575
L6352 2575
" />
<path d="M6352 9575
L7602 9575
" />
<path d="M6352 2575
L6352 9575
" />
<path d="M9852 8575
L9352 8575
" />
<path d="M8352 9575
L7602 9575
" />
<path d="M9352 8575
L8352 9575
" />
<path d="M11352 1575
L11352 8575
" />
<path d="M9852 8575
L11352 8575
" />
<path d="M11352 16575
L11352 8575
" />
<path d="M11352 8575
L9852 8575
" />
<path d="M15852 16575
L11352 16575
" />
<path d="M15852 14575
L15852 16575
" />
</g>
<g style="fill:#FFFFFF; fill-opacity:1.0; 
stroke:#FFFFFF; stroke-width:39.3701; stroke-opacity:1; 
stroke-linecap:round; stroke-linejoin:round;">
<circle cx="16352" cy="2075" r="140.315" /> 
<circle cx="16352" cy="5075" r="140.315" /> 
<circle cx="7852" cy="15203" r="140.315" /> 
<circle cx="7852" cy="14219" r="140.315" /> 
<circle cx="7852" cy="13431" r="140.315" /> 
<circle cx="7852" cy="12447" r="140.315" /> 
</g>
<g style="fill:#FFFFFF; fill-opacity:1.0; 
stroke:#FFFFFF; stroke-width:350; stroke-opacity:1; 
stroke-linecap:round; stroke-linejoin:round;">
<path d="M7365 16225
L6765 16225
" />
<path d="M7365 11425
L6765 11425
" />
</g>
<g style="fill:#FFFFFF; fill-opacity:1.0; 
stroke:#FFFFFF; stroke-width:39.3701; stroke-opacity:1; 
stroke-linecap:round; stroke-linejoin:round;">
<circle cx="7065" cy="14711" r="177.315" /> 
<circle cx="7065" cy="12939" r="177.315" /> 
<circle cx="7602" cy="7575" r="140.315" /> 
<circle cx="7602" cy="8575" r="140.315" /> 
<circle cx="7602" cy="9575" r="140.315" /> 
<circle cx="7602" cy="2575" r="140.315" /> 
<circle cx="7602" cy="3575" r="140.315" /> 
<circle cx="7602" cy="4575" r="140.315" /> 
<circle cx="7602" cy="5575" r="140.315" /> 
<circle cx="17352" cy="7075" r="140.315" /> 
<circle cx="16352" cy="7075" r="140.315" /> 
<circle cx="15352" cy="7075" r="140.315" /> 
<circle cx="9852" cy="3575" r="140.315" /> 
<circle cx="9852" cy="4575" r="140.315" /> 
<circle cx="9852" cy="5575" r="140.315" /> 
<circle cx="9852" cy="6575" r="140.315" /> 
<circle cx="9852" cy="7575" r="140.315" /> 
<circle cx="9852" cy="8575" r="140.315" /> 
<circle cx="9852" cy="9575" r="140.315" /> 
<circle cx="9852" cy="10575" r="140.315" /> 
<circle cx="9852" cy="11575" r="140.315" /> 
<circle cx="9852" cy="12575" r="140.315" /> 
<circle cx="9852" cy="13575" r="140.315" /> 
<circle cx="9852" cy="14575" r="140.315" /> 
<circle cx="9852" cy="15575" r="140.315" /> 
<circle cx="9852" cy="2575" r="140.315" /> 
<circle cx="12852" cy="15575" r="140.315" /> 
<circle cx="12852" cy="14575" r="140.315" /> 
<circle cx="12852" cy="13575" r="140.315" /> 
<circle cx="12852" cy="12575" r="140.315" /> 
<circle cx="12852" cy="11575" r="140.315" /> 
<circle cx="12852" cy="10575" r="140.315" /> 
<circle cx="12852" cy="9575" r="140.315" /> 
<circle cx="12852" cy="8575" r="140.315" /> 
<circle cx="12852" cy="7575" r="140.315" /> 
<circle cx="12852" cy="6575" r="140.315" /> 
<circle cx="12852" cy="5575" r="140.315" /> 
<circle cx="12852" cy="4575" r="140.315" /> 
<circle cx="12852" cy="3575" r="140.315" /> 
<circle cx="12852" cy="2575" r="140.315" /> 
<circle cx="16852" cy="14575" r="180.315" /> 
<circle cx="15852" cy="14575" r="180.315" /> 
<circle cx="16852" cy="13575" r="180.315" /> 
<circle cx="15852" cy="13575" r="180.315" /> 
<circle cx="16852" cy="12575" r="180.315" /> 
<circle cx="15852" cy="12575" r="180.315" /> 
<circle cx="16852" cy="11575" r="180.315" /> 
<circle cx="15852" cy="11575" r="180.315" /> 
<circle cx="16852" cy="10575" r="180.315" /> 
<circle cx="15852" cy="10575" r="180.315" /> 
</g> 
</svg>
