<?xml version="1.0" standalone="no"?>
 <!DOCTYPE svg PUBLIC "-//W3C//DTD SVG 1.1//EN" 
 "http://www.w3.org/Graphics/SVG/1.1/DTD/svg11.dtd"> 
<svg xmlns="http://www.w3.org/2000/svg" version="1.1" 
    width="5.36194cm" height="4.6101cm" viewBox="0 0 21110 18150 ">
<title>SVG Picture created as irda-timer--brd.svg date 2014/02/16 15:07:13 </title>
  <desc>Picture generated by PCBNEW </desc>
<g style="fill:#000000; fill-opacity:1;stroke:#000000; stroke-opacity:1;
stroke-linecap:round; stroke-linejoin:round; "
 transform="translate(0 0) scale(1 1)">
</g>
<g style="fill:#FFFF00; fill-opacity:0.0; 
stroke:#FFFF00; stroke-width:150; stroke-opacity:1; 
stroke-linecap:round; stroke-linejoin:round;">
<path d="M5952 1023
L20952 1023
" />
<path d="M20952 18023
L5952 18023
" />
</g>
<g style="fill:#00A000; fill-opacity:0.0; 
stroke:#00A000; stroke-width:80; stroke-opacity:1; 
stroke-linecap:round; stroke-linejoin:round;">
<path d="M10613 16725
L10613 16225
" />
<path d="M10423 16725
L10423 16392
" />
<path d="M10423 16487
L10404 16439
L10385 16415
L10347 16392
L10309 16392
" />
<path d="M10175 16725
L10175 16225
L10080 16225
L10023 16249
L9985 16296
L9966 16344
L9947 16439
L9947 16511
L9966 16606
L9985 16653
L10023 16701
L10080 16725
L10175 16725
" />
<path d="M9794 16582
L9604 16582
" />
<path d="M9832 16725
L9699 16225
L9566 16725
" />
<path d="M9432 16534
L9128 16534
" />
<path d="M8994 16225
L8766 16225
" />
<path d="M8880 16725
L8880 16225
" />
<path d="M8632 16725
L8632 16392
" />
<path d="M8632 16225
L8652 16249
L8632 16273
L8613 16249
L8632 16225
L8632 16273
" />
<path d="M8442 16725
L8442 16392
" />
<path d="M8442 16439
L8423 16415
L8385 16392
L8328 16392
L8290 16415
L8271 16463
L8271 16725
" />
<path d="M8271 16463
L8252 16415
L8213 16392
L8156 16392
L8118 16415
L8099 16463
L8099 16725
" />
<path d="M7756 16701
L7794 16725
L7871 16725
L7909 16701
L7928 16653
L7928 16463
L7909 16415
L7871 16392
L7794 16392
L7756 16415
L7737 16463
L7737 16511
L7928 16558
" />
<path d="M7566 16725
L7566 16392
" />
<path d="M7566 16487
L7547 16439
L7528 16415
L7490 16392
L7452 16392
" />
<path d="M7318 16534
L7013 16534
" />
<path d="M6880 16225
L6747 16725
L6613 16225
" />
<path d="M6499 16273
L6480 16249
L6442 16225
L6347 16225
L6309 16249
L6290 16273
L6271 16320
L6271 16368
L6290 16439
L6518 16725
L6271 16725
" />
<path d="M9509 17481
L9547 17505
L9623 17505
L9661 17481
L9680 17433
L9680 17243
L9661 17195
L9623 17172
L9547 17172
L9509 17195
L9490 17243
L9490 17291
L9680 17338
" />
<path d="M9166 17481
L9204 17505
L9280 17505
L9318 17481
L9337 17433
L9337 17243
L9318 17195
L9280 17172
L9204 17172
L9166 17195
L9147 17243
L9147 17291
L9337 17338
" />
<path d="M9013 17505
L8804 17172
" />
<path d="M9013 17172
L8804 17505
" />
<path d="M8652 17172
L8652 17672
" />
<path d="M8652 17195
L8613 17172
L8537 17172
L8499 17195
L8480 17219
L8461 17267
L8461 17410
L8480 17457
L8499 17481
L8537 17505
L8613 17505
L8652 17481
" />
<path d="M8290 17505
L8290 17172
" />
<path d="M8290 17267
L8271 17219
L8252 17195
L8213 17172
L8175 17172
" />
<path d="M7890 17481
L7928 17505
L8004 17505
L8042 17481
L8061 17433
L8061 17243
L8042 17195
L8004 17172
L7928 17172
L7890 17195
L7871 17243
L7871 17291
L8061 17338
" />
<path d="M7718 17481
L7680 17505
L7604 17505
L7566 17481
L7547 17433
L7547 17410
L7566 17362
L7604 17338
L7661 17338
L7699 17314
L7718 17267
L7718 17243
L7699 17195
L7661 17172
L7604 17172
L7566 17195
" />
<path d="M7394 17481
L7356 17505
L7280 17505
L7242 17481
L7223 17433
L7223 17410
L7242 17362
L7280 17338
L7337 17338
L7375 17314
L7394 17267
L7394 17243
L7375 17195
L7337 17172
L7280 17172
L7242 17195
" />
</g>
<g style="fill:#FFFF00; fill-opacity:0.0; 
stroke:#FFFF00; stroke-width:150; stroke-opacity:1; 
stroke-linecap:round; stroke-linejoin:round;">
<path d="M5952 1023
L5952 18023
" />
<path d="M20952 18023
L20952 1023
" />
</g>
<g style="fill:#00A0A0; fill-opacity:0.0; 
stroke:#00A0A0; stroke-width:120; stroke-opacity:1; 
stroke-linecap:round; stroke-linejoin:round;">
<path d="M2894 6465
L2894 6951
L2923 7008
L2952 7037
L3009 7065
L3123 7065
L3180 7037
L3209 7008
L3237 6951
L3237 6465
" />
<path d="M3494 7037
L3580 7065
L3723 7065
L3780 7037
L3809 7008
L3837 6951
L3837 6894
L3809 6837
L3780 6808
L3723 6780
L3609 6751
L3552 6723
L3523 6694
L3494 6637
L3494 6580
L3523 6523
L3552 6494
L3609 6465
L3752 6465
L3837 6494
" />
<path d="M4294 6751
L4380 6780
L4409 6808
L4437 6865
L4437 6951
L4409 7008
L4380 7037
L4323 7065
L4094 7065
L4094 6465
L4294 6465
L4352 6494
L4380 6523
L4409 6580
L4409 6637
L4380 6694
L4352 6723
L4294 6751
L4094 6751
" />
<path d="M4552 7123
L5009 7123
" />
<path d="M5123 6894
L5409 6894
" />
<path d="M5066 7065
L5266 6465
L5466 7065
" />
<path d="M5666 6837
L6123 6837
" />
<path d="M6409 7065
L6409 6465
L6609 6894
L6809 6465
L6809 7065
" />
<path d="M3694 8465
L3894 9065
L4094 8465
" />
<path d="M4266 8894
L4552 8894
" />
<path d="M4209 9065
L4409 8465
L4609 9065
" />
<path d="M5094 9065
L4809 9065
L4809 8465
" />
<path d="M5380 8465
L5380 8608
" />
<path d="M5237 8551
L5380 8608
L5523 8551
" />
<path d="M5294 8723
L5380 8608
L5466 8723
" />
<path d="M5837 8465
L5837 8608
" />
<path d="M5694 8551
L5837 8608
L5980 8551
" />
<path d="M5752 8723
L5837 8608
L5923 8723
" />
</g>
<g style="fill:#00A0A0; fill-opacity:0.0; 
stroke:#00A0A0; stroke-width:100; stroke-opacity:1; 
stroke-linecap:round; stroke-linejoin:round;">
<path d="M6727 15675
L6046 15675
L6046 15573
L6079 15512
L6143 15471
L6208 15451
L6338 15430
L6435 15430
L6565 15451
L6630 15471
L6695 15512
L6727 15573
L6727 15675
" />
<path d="M6662 15002
L6695 15023
L6727 15084
L6727 15124
L6695 15186
L6630 15226
L6565 15247
L6435 15267
L6338 15267
L6208 15247
L6143 15226
L6079 15186
L6046 15124
L6046 15084
L6079 15023
L6111 15002
" />
<path d="M6727 14819
L6046 14819
" />
<path d="M6727 14615
L6046 14615
L6727 14370
L6046 14370
" />
</g>
<g style="fill:#00A0A0; fill-opacity:0.0; 
stroke:#00A0A0; stroke-width:106; stroke-opacity:1; 
stroke-linecap:round; stroke-linejoin:round;">
<path d="M9237 10547
L8532 10547
" />
<path d="M9237 10346
L8767 10346
" />
<path d="M8901 10346
L8834 10325
L8800 10305
L8767 10265
L8767 10224
" />
<path d="M9237 10083
L8532 10083
L8532 9982
L8565 9922
L8633 9881
L8700 9861
L8834 9841
L8935 9841
L9069 9861
L9136 9881
L9203 9922
L9237 9982
L9237 10083
" />
<path d="M9035 9679
L9035 9477
" />
<path d="M9237 9720
L8532 9578
L9237 9437
" />
</g>
<g style="fill:#00A0A0; fill-opacity:0.0; 
stroke:#00A0A0; stroke-width:75; stroke-opacity:1; 
stroke-linecap:round; stroke-linejoin:round;">
<path d="M6923 3765
L6923 3165
L7023 3594
L7123 3165
L7123 3765
" />
<path d="M7266 3765
L7266 3165
" />
<path d="M7580 3708
L7566 3737
L7523 3765
L7494 3765
L7452 3737
L7423 3680
L7409 3623
L7394 3508
L7394 3423
L7409 3308
L7423 3251
L7452 3194
L7494 3165
L7523 3165
L7566 3194
L7580 3223
" />
<path d="M7880 3765
L7780 3480
" />
<path d="M7709 3765
L7709 3165
L7823 3165
L7852 3194
L7866 3223
L7880 3280
L7880 3365
L7866 3423
L7852 3451
L7823 3480
L7709 3480
" />
<path d="M8066 3165
L8123 3165
L8152 3194
L8180 3251
L8194 3365
L8194 3565
L8180 3680
L8152 3737
L8123 3765
L8066 3765
L8037 3737
L8009 3680
L7994 3565
L7994 3365
L8009 3251
L8037 3194
L8066 3165
" />
<path d="M8323 3537
L8552 3537
" />
<path d="M8794 3451
L8837 3480
L8852 3508
L8866 3565
L8866 3651
L8852 3708
L8837 3737
L8809 3765
L8694 3765
L8694 3165
L8794 3165
L8823 3194
L8837 3223
L8852 3280
L8852 3337
L8837 3394
L8823 3423
L8794 3451
L8694 3451
" />
<path d="M8923 3823
L9152 3823
" />
<path d="M9223 3165
L9223 3651
L9237 3708
L9252 3737
L9280 3765
L9337 3765
L9366 3737
L9380 3708
L9394 3651
L9394 3165
" />
<path d="M9523 3737
L9566 3765
L9637 3765
L9666 3737
L9680 3708
L9694 3651
L9694 3594
L9680 3537
L9666 3508
L9637 3480
L9580 3451
L9552 3423
L9537 3394
L9523 3337
L9523 3280
L9537 3223
L9552 3194
L9580 3165
L9652 3165
L9694 3194
" />
<path d="M9923 3451
L9966 3480
L9980 3508
L9994 3565
L9994 3651
L9980 3708
L9966 3737
L9937 3765
L9823 3765
L9823 3165
L9923 3165
L9952 3194
L9966 3223
L9980 3280
L9980 3337
L9966 3394
L9952 3423
L9923 3451
L9823 3451
" />
</g>
<g style="fill:#00A0A0; fill-opacity:0.0; 
stroke:#00A0A0; stroke-width:120; stroke-opacity:1; 
stroke-linecap:round; stroke-linejoin:round;">
<path d="M19580 5565
L19609 5480
L19637 5451
L19694 5423
L19780 5423
L19837 5451
L19866 5480
L19894 5537
L19894 5765
L19294 5765
L19294 5565
L19323 5508
L19352 5480
L19409 5451
L19466 5451
L19523 5480
L19552 5508
L19580 5565
L19580 5765
" />
<path d="M19866 4937
L19894 4994
L19894 5108
L19866 5165
L19809 5194
L19580 5194
L19523 5165
L19494 5108
L19494 4994
L19523 4937
L19580 4908
L19637 4908
L19694 5194
" />
<path d="M19866 4422
L19894 4480
L19894 4594
L19866 4651
L19809 4680
L19580 4680
L19523 4651
L19494 4594
L19494 4480
L19523 4422
L19580 4394
L19637 4394
L19694 4680
" />
<path d="M19494 4137
L20094 4137
" />
<path d="M19523 4137
L19494 4080
L19494 3965
L19523 3908
L19552 3880
L19609 3851
L19780 3851
L19837 3880
L19866 3908
L19894 3965
L19894 4080
L19866 4137
" />
</g>
<g style="fill:#00A0A0; fill-opacity:0.0; 
stroke:#00A0A0; stroke-width:106; stroke-opacity:1; 
stroke-linecap:round; stroke-linejoin:round;">
<path d="M17906 7558
L17906 6853
L18068 6853
L18108 6886
L18128 6920
L18149 6987
L18149 7088
L18128 7155
L18108 7189
L18068 7222
L17906 7222
" />
<path d="M18330 7558
L18330 6853
L18573 7558
L18573 6853
" />
<path d="M18775 7558
L18775 6853
L18936 6853
L18976 6886
L18997 6920
L19017 6987
L19017 7088
L18997 7155
L18976 7189
L18936 7222
L18775 7222
" />
</g>
<g style="fill:#00A0A0; fill-opacity:0.0; 
stroke:#00A0A0; stroke-width:113; stroke-opacity:1; 
stroke-linecap:round; stroke-linejoin:round;">
</g>
<g style="fill:#00A0A0; fill-opacity:0.0; 
stroke:#00A0A0; stroke-width:112.5; stroke-opacity:1; 
stroke-linecap:round; stroke-linejoin:round;">
<path d="M13523 11373
L13523 11158
" />
<path d="M13694 11415
L13094 11265
L13694 11115
" />
<path d="M13294 11030
L13294 10858
" />
<path d="M13094 10965
L13609 10965
L13666 10944
L13694 10901
L13694 10858
" />
<path d="M13694 10708
L13294 10708
" />
<path d="M13352 10708
L13323 10687
L13294 10644
L13294 10580
L13323 10537
L13380 10515
L13694 10515
" />
<path d="M13380 10515
L13323 10494
L13294 10451
L13294 10387
L13323 10344
L13380 10323
L13694 10323
" />
<path d="M13666 9937
L13694 9980
L13694 10065
L13666 10108
L13609 10130
L13380 10130
L13323 10108
L13294 10065
L13294 9980
L13323 9937
L13380 9915
L13437 9915
L13494 10130
" />
<path d="M13294 9530
L13780 9530
L13837 9551
L13866 9573
L13894 9615
L13894 9680
L13866 9723
" />
<path d="M13666 9530
L13694 9573
L13694 9658
L13666 9701
L13637 9723
L13580 9744
L13409 9744
L13352 9723
L13323 9701
L13294 9658
L13294 9573
L13323 9530
" />
<path d="M13694 9123
L13380 9123
L13323 9144
L13294 9187
L13294 9273
L13323 9315
" />
<path d="M13666 9123
L13694 9165
L13694 9273
L13666 9315
L13609 9337
L13552 9337
L13494 9315
L13466 9273
L13466 9165
L13437 9123
" />
<path d="M13352 8844
L13323 8887
L13294 8908
L13237 8930
L13209 8930
L13152 8908
L13123 8887
L13094 8844
L13094 8758
L13123 8715
L13152 8694
L13209 8673
L13237 8673
L13294 8694
L13323 8715
L13352 8758
L13352 8844
L13380 8887
L13409 8908
L13466 8930
L13580 8930
L13637 8908
L13666 8887
L13694 8844
L13694 8758
L13666 8715
L13637 8694
L13580 8673
L13466 8673
L13409 8694
L13380 8715
L13352 8758
" />
</g>
<g style="fill:#00A0A0; fill-opacity:0.0; 
stroke:#00A0A0; stroke-width:113; stroke-opacity:1; 
stroke-linecap:round; stroke-linejoin:round;">
</g>
<g style="fill:#00A0A0; fill-opacity:0.0; 
stroke:#00A0A0; stroke-width:112.5; stroke-opacity:1; 
stroke-linecap:round; stroke-linejoin:round;">
</g>
<g style="fill:#00A0A0; fill-opacity:0.0; 
stroke:#00A0A0; stroke-width:113; stroke-opacity:1; 
stroke-linecap:round; stroke-linejoin:round;">
</g>
<g style="fill:#00A0A0; fill-opacity:0.0; 
stroke:#00A0A0; stroke-width:80; stroke-opacity:1; 
stroke-linecap:round; stroke-linejoin:round;">
<path d="M17985 9784
L17985 10070
L17966 10127
L17928 10165
L17871 10184
L17832 10184
" />
<path d="M18118 9784
L18347 9784
" />
<path d="M18232 10184
L18232 9784
" />
<path d="M18461 10070
L18652 10070
" />
<path d="M18423 10184
L18556 9784
L18690 10184
" />
<path d="M19032 9803
L18994 9784
L18937 9784
L18880 9803
L18842 9842
L18823 9880
L18804 9956
L18804 10013
L18823 10089
L18842 10127
L18880 10165
L18937 10184
L18975 10184
L19032 10165
L19052 10146
L19052 10013
L18975 10013
" />
</g>
<g style="fill:#00A0A0; fill-opacity:0.0; 
stroke:#00A0A0; stroke-width:107; stroke-opacity:1; 
stroke-linecap:round; stroke-linejoin:round;">
<path d="M8545 6705
L9098 6705
L9163 6685
L9195 6665
L9228 6624
L9228 6542
L9195 6501
L9163 6481
L9098 6461
L8545 6461
" />
<path d="M9033 6277
L9033 6073
" />
<path d="M9228 6318
L8545 6175
L9228 6033
" />
<path d="M9228 5645
L8903 5788
" />
<path d="M9228 5890
L8545 5890
L8545 5727
L8577 5686
L8610 5666
L8675 5645
L8773 5645
L8838 5666
L8870 5686
L8903 5727
L8903 5890
" />
<path d="M8545 5523
L8545 5279
" />
<path d="M9228 5401
L8545 5401
" />
</g>
<g style="fill:#00A0A0; fill-opacity:0.0; 
stroke:#00A0A0; stroke-width:120; stroke-opacity:1; 
stroke-linecap:round; stroke-linejoin:round;">
<path d="M18380 5208
L18380 5008
" />
<path d="M18694 4923
L18694 5208
L18094 5208
L18094 4923
" />
<path d="M18523 4694
L18523 4408
" />
<path d="M18694 4751
L18094 4551
L18694 4351
" />
<path d="M18694 3808
L18409 4008
" />
<path d="M18694 4151
L18094 4151
L18094 3922
L18123 3865
L18152 3837
L18209 3808
L18294 3808
L18352 3837
L18380 3865
L18409 3922
L18409 4151
" />
</g>
<g style="fill:#00A0A0; fill-opacity:0.0; 
stroke:#00A0A0; stroke-width:150; stroke-opacity:1; 
stroke-linecap:round; stroke-linejoin:round;">
<path d="M7458 5461
L175 5461
" />
<path d="M175 10185
L7458 10185
" />
<path d="M6671 5461
L6671 5756
" />
<path d="M6671 10185
L6671 9890
" />
<path d="M2930 8512
L2241 8512
" />
<path d="M2930 9496
L2930 8512
" />
<path d="M2241 9496
L2930 9496
" />
<path d="M2241 8512
L2241 9496
" />
<path d="M2241 8512
L2241 9496
" />
<path d="M2241 9496
L2930 9496
" />
<path d="M2930 9496
L2930 8512
" />
<path d="M2930 8512
L2241 8512
" />
<path d="M2930 8512
L2241 8512
" />
<path d="M2930 9496
L2930 8512
" />
<path d="M2241 9496
L2930 9496
" />
<path d="M2241 8512
L2241 9496
" />
<path d="M2241 8512
L2241 9496
" />
<path d="M2241 9496
L2930 9496
" />
<path d="M2930 9496
L2930 8512
" />
<path d="M2930 8512
L2241 8512
" />
<path d="M2931 6150
L2242 6150
" />
<path d="M2931 7134
L2931 6150
" />
<path d="M2242 7134
L2931 7134
" />
<path d="M2242 6150
L2242 7134
" />
<path d="M2242 6150
L2242 7134
" />
<path d="M2242 7134
L2931 7134
" />
<path d="M2931 7134
L2931 6150
" />
<path d="M2931 6150
L2242 6150
" />
<path d="M2931 6150
L2242 6150
" />
<path d="M2931 7134
L2931 6150
" />
<path d="M2242 7134
L2931 7134
" />
<path d="M2242 6150
L2242 7134
" />
<path d="M2242 6150
L2242 7134
" />
<path d="M2242 7134
L2931 7134
" />
<path d="M2931 7134
L2931 6150
" />
<path d="M2931 6150
L2242 6150
" />
<path d="M5884 10185
L5884 5461
" />
<path d="M7459 5461
L7459 10185
" />
<path d="M175 10185
L175 5461
" />
<path d="M10125 16696
L6680 16696
" />
<path d="M10125 12661
L10125 17976
" />
<path d="M10125 17976
L6680 17976
" />
<path d="M6680 17976
L6680 12661
" />
<path d="M6680 12661
L10125 12661
" />
<path d="M7369 15220
L7369 14826
" />
<path d="M7566 13153
L7172 13153
" />
<path d="M7369 13350
L7369 12956
" />
<path d="M8452 14323
L8452 14723
" />
<path d="M8452 13523
L8452 13023
" />
<path d="M7852.07 13622.6 A608.276 608.276 0.0 0 0 8351.61 14322.9 " />
<path d="M8552.39 14322.9 A608.276 608.276 0.0 0 0 9051.93 13622.6 " />
<circle cx="8452" cy="13723" r="223.607" /> 
<path d="M10543 8940
L10641 8743
" />
<path d="M10543 8940
L10641 9137
" />
<path d="M10543 8940
L10936 8940
" />
<path d="M10739 9826
L10739 10121
" />
<path d="M10936 11007
L10543 11007
" />
<path d="M10739 10810
L10739 11204
" />
<path d="M9452 9023 A1414.21 1414.21 0.0 0 0 9452 11023 " />
</g>
<g style="fill:#00A0A0; fill-opacity:0.0; 
stroke:#00A0A0; stroke-width:120; stroke-opacity:1; 
stroke-linecap:round; stroke-linejoin:round;">
<path d="M9452 8523
L10452 8523
" />
<path d="M10452 8523
L10452 11523
" />
<path d="M10452 11523
L9452 11523
" />
<path d="M9452 11523
L9452 8523
" />
<path d="M10452 9523
L9452 9523
" />
</g>
<g style="fill:#00A0A0; fill-opacity:0.0; 
stroke:#00A0A0; stroke-width:150; stroke-opacity:1; 
stroke-linecap:round; stroke-linejoin:round;">
<path d="M9830 1129
L10027 932
" />
<path d="M9830 1129
L7074 1129
" />
<path d="M7074 1129
L6877 932
" />
<path d="M9830 932
L9830 1720
" />
<path d="M9830 1720
L10027 1720
" />
<path d="M10027 1720
L10027 2114
" />
<path d="M10027 2114
L9830 2114
" />
<path d="M9830 2114
L9830 3098
" />
<path d="M7074 3098
L7074 2114
" />
<path d="M7074 2114
L6877 2114
" />
<path d="M6877 2114
L6877 1720
" />
<path d="M6877 1720
L7074 1720
" />
<path d="M7074 1720
L7074 932
" />
<path d="M9830 3098
L7074 3098
" />
<path d="M7074 932
L9830 932
" />
</g>
<g style="fill:#00A0A0; fill-opacity:0.0; 
stroke:#00A0A0; stroke-width:125; stroke-opacity:1; 
stroke-linecap:round; stroke-linejoin:round;">
<circle cx="18452" cy="5023" r="2500" /> 
</g>
<g style="fill:#00A0A0; fill-opacity:0.0; 
stroke:#00A0A0; stroke-width:150; stroke-opacity:1; 
stroke-linecap:round; stroke-linejoin:round;">
<path d="M19452 8273
L19352 7973
" />
<path d="M19352 7973
L17652 7973
" />
<path d="M17652 7973
L17552 7973
" />
<path d="M17552 7973
L17452 8273
" />
<path d="M19452 8273
L17452 8273
" />
<path d="M19452 8273
L18452 8273
" />
<path d="M18452 9273 A1000 1000 0.0 0 0 19452 8273 " />
<path d="M17452 8273 A1000 1000 0.0 0 0 18452 9273 " />
<path d="M14452 2523
L14452 17523
" />
<path d="M14452 17523
L12452 17523
" />
<path d="M12452 17523
L12452 2523
" />
<path d="M12452 2523
L14452 2523
" />
<path d="M13952 2523
L13952 3023
" />
<path d="M13952 3023
L12952 3023
" />
<path d="M12952 3023
L12952 2523
" />
<path d="M19952 17523
L16952 17523
" />
<path d="M16952 17523
L16952 9523
" />
<path d="M16952 9523
L19952 9523
" />
<path d="M19952 9523
L19952 12523
" />
<path d="M19952 14523
L19952 17523
" />
</g>
<g style="fill:#00A0A0; fill-opacity:0.0; 
stroke:#00A0A0; stroke-width:120; stroke-opacity:1; 
stroke-linecap:round; stroke-linejoin:round;">
<path d="M10452 4023
L10452 4023
" />
<path d="M9452 4023
L10452 4023
" />
<path d="M10452 4023
L10452 4023
" />
<path d="M10452 4023
L10452 8023
" />
<path d="M10452 8023
L9452 8023
" />
<path d="M9452 8023
L9452 4023
" />
<path d="M9452 5023
L10452 5023
" />
</g>
<g style="fill:#00A0A0; fill-opacity:0.0; 
stroke:#00A0A0; stroke-width:150; stroke-opacity:1; 
stroke-linecap:round; stroke-linejoin:round;">
<path d="M17483 2432
L17483 1251
" />
<path d="M17483 1251
L19255 1251
" />
<path d="M19255 1251
L19255 2432
" />
<path d="M19649 6960
L17090 6960
" />
<path d="M17090 6960
L17090 2432
" />
<path d="M17090 2432
L19649 2432
" />
<path d="M19649 2432
L19649 6960
" />
</g>
<g style="fill:#808000; fill-opacity:0.0; 
stroke:#808000; stroke-width:39.3701; stroke-opacity:1; 
stroke-linecap:round; stroke-linejoin:round;">
</g>
<g style="fill:#808000; fill-opacity:1.0; 
stroke:#808000; stroke-width:39.3701; stroke-opacity:1; 
stroke-linecap:round; stroke-linejoin:round;">
<circle cx="7852" cy="9201" r="255.315" /> 
<circle cx="7852" cy="8217" r="255.315" /> 
<circle cx="7852" cy="7429" r="255.315" /> 
<polyline style="fill-rule:evenodd;"
points="8107,6189
8107,6700
7596,6700
7596,6189
8107,6189
" /> 
</g>
<g style="fill:#808000; fill-opacity:1.0; 
stroke:#808000; stroke-width:700; stroke-opacity:1; 
stroke-linecap:round; stroke-linejoin:round;">
<path d="M7415 10223
L6715 10223
" />
<path d="M7415 5423
L6715 5423
" />
</g>
<g style="fill:#808000; fill-opacity:1.0; 
stroke:#808000; stroke-width:39.3701; stroke-opacity:1; 
stroke-linecap:round; stroke-linejoin:round;">
<circle cx="7065" cy="8709" r="177.315" /> 
<circle cx="7065" cy="6937" r="177.315" /> 
</g>
<g style="fill:#808000; fill-opacity:1.0; 
stroke:#808000; stroke-width:700; stroke-opacity:1; 
stroke-linecap:round; stroke-linejoin:round;">
<path d="M8102 15073
L8802 15073
" />
</g>
<g style="fill:#808000; fill-opacity:1.0; 
stroke:#808000; stroke-width:39.3701; stroke-opacity:1; 
stroke-linecap:round; stroke-linejoin:round;">
<polyline style="fill-rule:evenodd;"
points="9132,12953
7771,12953
7771,12292
9132,12292
9132,12953
" /> 
</g>
<g style="fill:#808000; fill-opacity:1.0; 
stroke:#808000; stroke-width:700; stroke-opacity:1; 
stroke-linecap:round; stroke-linejoin:round;">
<path d="M10152 14073
L10152 13373
" />
</g>
<g style="fill:#808000; fill-opacity:1.0; 
stroke:#808000; stroke-width:39.3701; stroke-opacity:1; 
stroke-linecap:round; stroke-linejoin:round;">
<polyline style="fill-rule:evenodd;"
points="9696,8767
10207,8767
10207,9278
9696,9278
9696,8767
" /> 
<circle cx="9952" cy="10023" r="255.315" /> 
<circle cx="9952" cy="11023" r="255.315" /> 
<polyline style="fill-rule:evenodd;"
points="7841,1641
7841,2192
6700,2192
6700,1641
7841,1641
" /> 
</g>
<g style="fill:#A00000; fill-opacity:1.0; 
stroke:#A00000; stroke-width:39.3701; stroke-opacity:1; 
stroke-linecap:round; stroke-linejoin:round;">
<polyline style="fill-rule:evenodd;"
points="9021,2566
9021,3235
8904,3235
8904,2566
9021,2566
" /> 
<polyline style="fill-rule:evenodd;"
points="8765,2566
8765,3235
8648,3235
8648,2566
8765,2566
" /> 
<polyline style="fill-rule:evenodd;"
points="8510,2566
8510,3235
8393,3235
8393,2566
8510,2566
" /> 
<polyline style="fill-rule:evenodd;"
points="8255,2566
8255,3235
8138,3235
8138,2566
8255,2566
" /> 
<polyline style="fill-rule:evenodd;"
points="7999,2566
7999,3235
7882,3235
7882,2566
7999,2566
" /> 
</g>
<g style="fill:#808000; fill-opacity:1.0; 
stroke:#808000; stroke-width:39.3701; stroke-opacity:1; 
stroke-linecap:round; stroke-linejoin:round;">
<polyline style="fill-rule:evenodd;"
points="10203,1641
10203,2192
9062,2192
9062,1641
10203,1641
" /> 
<polyline style="fill-rule:evenodd;"
points="18191,3262
18712,3262
18712,3783
18191,3783
18191,3262
" /> 
<circle cx="18452" cy="6523" r="260.315" /> 
</g>
<g style="fill:#808000; fill-opacity:1.0; 
stroke:#808000; stroke-width:560; stroke-opacity:1; 
stroke-linecap:round; stroke-linejoin:round;">
<path d="M18452 6123
L18452 6123
" />
</g>
<g style="fill:#808000; fill-opacity:1.0; 
stroke:#808000; stroke-width:39.3701; stroke-opacity:1; 
stroke-linecap:round; stroke-linejoin:round;">
<polyline style="fill-rule:evenodd;"
points="19707,8017
19707,8528
19196,8528
19196,8017
19707,8017
" /> 
<circle cx="18452" cy="8273" r="255.315" /> 
<circle cx="17452" cy="8273" r="255.315" /> 
<circle cx="11952" cy="4523" r="255.315" /> 
<circle cx="11952" cy="5523" r="255.315" /> 
<circle cx="11952" cy="6523" r="255.315" /> 
<circle cx="11952" cy="7523" r="255.315" /> 
<circle cx="11952" cy="8523" r="255.315" /> 
<circle cx="11952" cy="9523" r="255.315" /> 
<circle cx="11952" cy="10523" r="255.315" /> 
<circle cx="11952" cy="11523" r="255.315" /> 
<circle cx="11952" cy="12523" r="255.315" /> 
<circle cx="11952" cy="13523" r="255.315" /> 
<circle cx="11952" cy="14523" r="255.315" /> 
<circle cx="11952" cy="15523" r="255.315" /> 
<circle cx="11952" cy="16523" r="255.315" /> 
<polyline style="fill-rule:evenodd;"
points="11696,3267
12207,3267
12207,3778
11696,3778
11696,3267
" /> 
<circle cx="14952" cy="16523" r="255.315" /> 
<circle cx="14952" cy="15523" r="255.315" /> 
<circle cx="14952" cy="14523" r="255.315" /> 
<circle cx="14952" cy="13523" r="255.315" /> 
<circle cx="14952" cy="12523" r="255.315" /> 
<circle cx="14952" cy="11523" r="255.315" /> 
<circle cx="14952" cy="10523" r="255.315" /> 
<circle cx="14952" cy="9523" r="255.315" /> 
<circle cx="14952" cy="8523" r="255.315" /> 
<circle cx="14952" cy="7523" r="255.315" /> 
<circle cx="14952" cy="6523" r="255.315" /> 
<circle cx="14952" cy="5523" r="255.315" /> 
<circle cx="14952" cy="4523" r="255.315" /> 
<circle cx="14952" cy="3523" r="255.315" /> 
<polyline style="fill-rule:evenodd;"
points="19232,15803
18671,15803
18671,15242
19232,15242
19232,15803
" /> 
<circle cx="17952" cy="15523" r="280.315" /> 
<circle cx="18952" cy="14523" r="280.315" /> 
<circle cx="17952" cy="14523" r="280.315" /> 
<circle cx="18952" cy="13523" r="280.315" /> 
<circle cx="17952" cy="13523" r="280.315" /> 
<circle cx="18952" cy="12523" r="280.315" /> 
<circle cx="17952" cy="12523" r="280.315" /> 
<circle cx="18952" cy="11523" r="280.315" /> 
<circle cx="17952" cy="11523" r="280.315" /> 
<polyline style="fill-rule:evenodd;"
points="9696,4267
10207,4267
10207,4778
9696,4778
9696,4267
" /> 
<circle cx="9952" cy="5523" r="255.315" /> 
<circle cx="9952" cy="6523" r="255.315" /> 
<circle cx="9952" cy="7523" r="255.315" /> 
<circle cx="19452" cy="3023" r="472.315" /> 
<circle cx="19452" cy="4401" r="472.315" /> 
<circle cx="19452" cy="5779" r="472.315" /> 
<circle cx="17287" cy="5779" r="472.315" /> 
<circle cx="17287" cy="3023" r="472.315" /> 
</g>
<g style="fill:#A00000; fill-opacity:1.0; 
stroke:#A00000; stroke-width:600; stroke-opacity:1; 
stroke-linecap:round; stroke-linejoin:round;">
<path d="M9952 4523
L9352 4523
" />
</g>
<g style="fill:#A00000; fill-opacity:1.0; 
stroke:#A00000; stroke-width:200; stroke-opacity:1; 
stroke-linecap:round; stroke-linejoin:round;">
<path d="M8963 4134
L8963 2901
" />
</g>
<g style="fill:#A00000; fill-opacity:1.0; 
stroke:#A00000; stroke-width:600; stroke-opacity:1; 
stroke-linecap:round; stroke-linejoin:round;">
<path d="M9352 4523
L8963 4134
" />
</g>
<g style="fill:#00A000; fill-opacity:1.0; 
stroke:#00A000; stroke-width:400; stroke-opacity:1; 
stroke-linecap:round; stroke-linejoin:round;">
<path d="M11952 5523
L11452 5523
" />
<path d="M10452 6523
L9952 6523
" />
<path d="M11452 5523
L10452 6523
" />
<path d="M11952 4523
L11452 4523
" />
<path d="M10452 5523
L9952 5523
" />
<path d="M11452 4523
L10452 5523
" />
<path d="M11952 7523
L11452 7523
" />
<path d="M10452 9023
L9952 9023
" />
<path d="M10952 8523
L10452 9023
" />
<path d="M10952 8023
L10952 8523
" />
<path d="M11452 7523
L10952 8023
" />
</g>
<g style="fill:#00A000; fill-opacity:1.0; 
stroke:#00A000; stroke-width:600; stroke-opacity:1; 
stroke-linecap:round; stroke-linejoin:round;">
<path d="M19452 8273
L19452 5779
" />
<path d="M18452 6523
L18452 5779
" />
</g>
<g style="fill:#00A000; fill-opacity:1.0; 
stroke:#00A000; stroke-width:800; stroke-opacity:1; 
stroke-linecap:round; stroke-linejoin:round;">
<path d="M17287 5779
L18452 5779
" />
<path d="M18452 5779
L19452 5779
" />
</g>
<g style="fill:#00A000; fill-opacity:1.0; 
stroke:#00A000; stroke-width:400; stroke-opacity:1; 
stroke-linecap:round; stroke-linejoin:round;">
<path d="M18452 8273
L18452 7423
" />
</g>
<g style="fill:#00A000; fill-opacity:1.0; 
stroke:#00A000; stroke-width:600; stroke-opacity:1; 
stroke-linecap:round; stroke-linejoin:round;">
<path d="M15952 16523
L14952 16523
" />
<path d="M16452 16023
L15952 16523
" />
<path d="M16452 7423
L16452 16023
" />
</g>
<g style="fill:#00A000; fill-opacity:1.0; 
stroke:#00A000; stroke-width:400; stroke-opacity:1; 
stroke-linecap:round; stroke-linejoin:round;">
<path d="M18452 7423
L16452 7423
" />
</g>
<g style="fill:#A00000; fill-opacity:1.0; 
stroke:#A00000; stroke-width:400; stroke-opacity:1; 
stroke-linecap:round; stroke-linejoin:round;">
<path d="M14952 15523
L15952 15523
" />
<path d="M15952 17523
L19952 17523
" />
<path d="M15952 15523
L15952 17523
" />
<path d="M19952 17523
L19952 14523
" />
<path d="M19952 14523
L18952 14523
" />
<path d="M19952 14523
L18952 14523
" />
<path d="M19952 17523
L19952 14523
" />
<path d="M14952 13523
L16952 13523
" />
<path d="M18952 10523
L18952 11523
" />
<path d="M16952 10523
L18952 10523
" />
<path d="M16952 13523
L16952 10523
" />
<path d="M14952 14523
L16952 14523
" />
<path d="M16952 16523
L18952 16523
" />
<path d="M16952 14523
L16952 16523
" />
<path d="M18952 16523
L18952 15523
" />
<path d="M18952 16523
L18952 15523
" />
<path d="M14952 12523
L15952 12523
" />
<path d="M19952 12523
L18952 12523
" />
<path d="M19952 9523
L19952 12523
" />
<path d="M15952 9523
L19952 9523
" />
<path d="M15952 12523
L15952 9523
" />
</g>
<g style="fill:#00A000; fill-opacity:1.0; 
stroke:#00A000; stroke-width:600; stroke-opacity:1; 
stroke-linecap:round; stroke-linejoin:round;">
<path d="M17952 14523
L17952 10023
" />
<path d="M17952 10023
L17452 10023
" />
<path d="M17452 10023
L17452 8273
" />
</g>
<g style="fill:#00A000; fill-opacity:1.0; 
stroke:#00A000; stroke-width:400; stroke-opacity:1; 
stroke-linecap:round; stroke-linejoin:round;">
<path d="M20452 5523
L20452 1523
" />
</g>
<g style="fill:#00A000; fill-opacity:1.0; 
stroke:#00A000; stroke-width:600; stroke-opacity:1; 
stroke-linecap:round; stroke-linejoin:round;">
<path d="M11952 1523
L11952 3523
" />
<path d="M20452 1523
L11952 1523
" />
<path d="M18952 13523
L20452 13523
" />
</g>
<g style="fill:#00A000; fill-opacity:1.0; 
stroke:#00A000; stroke-width:400; stroke-opacity:1; 
stroke-linecap:round; stroke-linejoin:round;">
<path d="M20452 13523
L20452 5523
" />
</g>
<g style="fill:#A00000; fill-opacity:1.0; 
stroke:#A00000; stroke-width:600; stroke-opacity:1; 
stroke-linecap:round; stroke-linejoin:round;">
<path d="M7752 6445
L8474 6445
" />
<path d="M8152 6445
L8474 6445
" />
<path d="M8474 6445
L9552 7523
" />
<path d="M9552 7523
L10952 7523
" />
<path d="M9952 7523
L10952 7523
" />
<path d="M9952 10023
L10952 10023
" />
<path d="M10952 10523
L10952 12023
" />
<path d="M10252 12723
L10252 13723
" />
<path d="M10952 12023
L10252 12723
" />
</g>
<g style="fill:#A00000; fill-opacity:1.0; 
stroke:#A00000; stroke-width:200; stroke-opacity:1; 
stroke-linecap:round; stroke-linejoin:round;">
<path d="M7941 2901
L7941 2034
" />
</g>
<g style="fill:#A00000; fill-opacity:1.0; 
stroke:#A00000; stroke-width:800; stroke-opacity:1; 
stroke-linecap:round; stroke-linejoin:round;">
<path d="M8452 1523
L10952 1523
" />
<path d="M7941 2034
L8452 1523
" />
</g>
<g style="fill:#A00000; fill-opacity:1.0; 
stroke:#A00000; stroke-width:600; stroke-opacity:1; 
stroke-linecap:round; stroke-linejoin:round;">
<path d="M10952 10523
L11952 10523
" />
<path d="M10952 8523
L10952 9523
" />
<path d="M10952 9523
L10952 10023
" />
<path d="M10952 10023
L10952 10523
" />
<path d="M17452 8273
L16702 8273
" />
</g>
<g style="fill:#A00000; fill-opacity:1.0; 
stroke:#A00000; stroke-width:800; stroke-opacity:1; 
stroke-linecap:round; stroke-linejoin:round;">
<path d="M16052 1523
L10952 1523
" />
</g>
<g style="fill:#A00000; fill-opacity:1.0; 
stroke:#A00000; stroke-width:600; stroke-opacity:1; 
stroke-linecap:round; stroke-linejoin:round;">
<path d="M16052 7623
L16052 1523
" />
<path d="M16702 8273
L16052 7623
" />
<path d="M10952 1523
L10952 6023
" />
<path d="M10952 6023
L10952 7523
" />
<path d="M10952 7523
L10952 8523
" />
</g>
<g style="fill:#A00000; fill-opacity:1.0; 
stroke:#A00000; stroke-width:800; stroke-opacity:1; 
stroke-linecap:round; stroke-linejoin:round;">
<path d="M8452 15073
L9702 15073
" />
<path d="M10152 14623
L10152 13723
" />
<path d="M9702 15073
L10152 14623
" />
</g>
<g style="fill:#00A000; fill-opacity:1.0; 
stroke:#00A000; stroke-width:600; stroke-opacity:1; 
stroke-linecap:round; stroke-linejoin:round;">
<path d="M11952 9523
L11452 9523
" />
<path d="M10952 11023
L9952 11023
" />
<path d="M10952 10023
L10952 11023
" />
<path d="M11452 9523
L10952 10023
" />
<path d="M18452 3523
L18452 3023
" />
<path d="M17287 3023
L17287 2858
" />
<path d="M13452 2523
L13452 9523
" />
<path d="M16952 2523
L13452 2523
" />
<path d="M17287 2858
L16952 2523
" />
</g>
<g style="fill:#00A000; fill-opacity:1.0; 
stroke:#00A000; stroke-width:800; stroke-opacity:1; 
stroke-linecap:round; stroke-linejoin:round;">
<path d="M17287 3023
L18452 3023
" />
<path d="M18452 3023
L19452 3023
" />
</g>
<g style="fill:#00A000; fill-opacity:1.0; 
stroke:#00A000; stroke-width:600; stroke-opacity:1; 
stroke-linecap:round; stroke-linejoin:round;">
<path d="M11952 9523
L13452 9523
" />
<path d="M7752 9201
L9052 9201
" />
<path d="M8152 9201
L9052 9201
" />
<path d="M9052 9201
L9052 9223
" />
<path d="M8452 12623
L9052 12023
" />
<path d="M9152 4523
L9952 4523
" />
<path d="M9052 4623
L9152 4523
" />
<path d="M9052 12023
L9052 9223
" />
<path d="M9052 9223
L9052 4623
" />
</g>
<g style="fill:#00A000; fill-opacity:1.0; 
stroke:#00A000; stroke-width:800; stroke-opacity:1; 
stroke-linecap:round; stroke-linejoin:round;">
<path d="M9952 11023
L8452 12523
" />
</g>
<g style="fill:#00A000; fill-opacity:1.0; 
stroke:#00A000; stroke-width:600; stroke-opacity:1; 
stroke-linecap:round; stroke-linejoin:round;">
<path d="M8452 12523
L8452 12623
" />
<path d="M13452 17523
L13452 9523
" />
<path d="M13452 9523
L11952 9523
" />
<path d="M17952 17523
L13452 17523
" />
<path d="M17952 15523
L17952 17523
" />
</g>
<g style="fill:#FFFFFF; fill-opacity:1.0; 
stroke:#FFFFFF; stroke-width:39.3701; stroke-opacity:1; 
stroke-linecap:round; stroke-linejoin:round;">
<circle cx="7852" cy="9201" r="140.315" /> 
<circle cx="7852" cy="8217" r="140.315" /> 
<circle cx="7852" cy="7429" r="140.315" /> 
<circle cx="7852" cy="6445" r="140.315" /> 
</g>
<g style="fill:#FFFFFF; fill-opacity:1.0; 
stroke:#FFFFFF; stroke-width:350; stroke-opacity:1; 
stroke-linecap:round; stroke-linejoin:round;">
<path d="M7365 10223
L6765 10223
" />
<path d="M7365 5423
L6765 5423
" />
</g>
<g style="fill:#FFFFFF; fill-opacity:1.0; 
stroke:#FFFFFF; stroke-width:39.3701; stroke-opacity:1; 
stroke-linecap:round; stroke-linejoin:round;">
<circle cx="7065" cy="8709" r="177.315" /> 
<circle cx="7065" cy="6937" r="177.315" /> 
</g>
<g style="fill:#FFFFFF; fill-opacity:1.0; 
stroke:#FFFFFF; stroke-width:300; stroke-opacity:1; 
stroke-linecap:round; stroke-linejoin:round;">
<path d="M8102 15073
L8802 15073
" />
<path d="M8102 12623
L8802 12623
" />
<path d="M10152 14073
L10152 13373
" />
</g>
<g style="fill:#FFFFFF; fill-opacity:1.0; 
stroke:#FFFFFF; stroke-width:39.3701; stroke-opacity:1; 
stroke-linecap:round; stroke-linejoin:round;">
<circle cx="9952" cy="9023" r="140.315" /> 
<circle cx="9952" cy="10023" r="140.315" /> 
<circle cx="9952" cy="11023" r="140.315" /> 
</g>
<g style="fill:#FFFFFF; fill-opacity:1.0; 
stroke:#FFFFFF; stroke-width:197; stroke-opacity:1; 
stroke-linecap:round; stroke-linejoin:round;">
<path d="M7271 2054
L7271 1779
" />
<path d="M9633 2054
L9633 1779
" />
</g>
<g style="fill:#FFFFFF; fill-opacity:1.0; 
stroke:#FFFFFF; stroke-width:39.3701; stroke-opacity:1; 
stroke-linecap:round; stroke-linejoin:round;">
<circle cx="18452" cy="3523" r="140.315" /> 
<circle cx="18452" cy="6523" r="140.315" /> 
<circle cx="18452" cy="6123" r="140.315" /> 
<circle cx="19452" cy="8273" r="140.315" /> 
<circle cx="18452" cy="8273" r="140.315" /> 
<circle cx="17452" cy="8273" r="140.315" /> 
<circle cx="11952" cy="4523" r="140.315" /> 
<circle cx="11952" cy="5523" r="140.315" /> 
<circle cx="11952" cy="6523" r="140.315" /> 
<circle cx="11952" cy="7523" r="140.315" /> 
<circle cx="11952" cy="8523" r="140.315" /> 
<circle cx="11952" cy="9523" r="140.315" /> 
<circle cx="11952" cy="10523" r="140.315" /> 
<circle cx="11952" cy="11523" r="140.315" /> 
<circle cx="11952" cy="12523" r="140.315" /> 
<circle cx="11952" cy="13523" r="140.315" /> 
<circle cx="11952" cy="14523" r="140.315" /> 
<circle cx="11952" cy="15523" r="140.315" /> 
<circle cx="11952" cy="16523" r="140.315" /> 
<circle cx="11952" cy="3523" r="140.315" /> 
<circle cx="14952" cy="16523" r="140.315" /> 
<circle cx="14952" cy="15523" r="140.315" /> 
<circle cx="14952" cy="14523" r="140.315" /> 
<circle cx="14952" cy="13523" r="140.315" /> 
<circle cx="14952" cy="12523" r="140.315" /> 
<circle cx="14952" cy="11523" r="140.315" /> 
<circle cx="14952" cy="10523" r="140.315" /> 
<circle cx="14952" cy="9523" r="140.315" /> 
<circle cx="14952" cy="8523" r="140.315" /> 
<circle cx="14952" cy="7523" r="140.315" /> 
<circle cx="14952" cy="6523" r="140.315" /> 
<circle cx="14952" cy="5523" r="140.315" /> 
<circle cx="14952" cy="4523" r="140.315" /> 
<circle cx="14952" cy="3523" r="140.315" /> 
<circle cx="18952" cy="15523" r="180.315" /> 
<circle cx="17952" cy="15523" r="180.315" /> 
<circle cx="18952" cy="14523" r="180.315" /> 
<circle cx="17952" cy="14523" r="180.315" /> 
<circle cx="18952" cy="13523" r="180.315" /> 
<circle cx="17952" cy="13523" r="180.315" /> 
<circle cx="18952" cy="12523" r="180.315" /> 
<circle cx="17952" cy="12523" r="180.315" /> 
<circle cx="18952" cy="11523" r="180.315" /> 
<circle cx="17952" cy="11523" r="180.315" /> 
<circle cx="9952" cy="4523" r="140.315" /> 
<circle cx="9952" cy="5523" r="140.315" /> 
<circle cx="9952" cy="6523" r="140.315" /> 
<circle cx="9952" cy="7523" r="140.315" /> 
<circle cx="19452" cy="3023" r="216.315" /> 
<circle cx="19452" cy="4401" r="216.315" /> 
<circle cx="19452" cy="5779" r="216.315" /> 
<circle cx="17287" cy="5779" r="216.315" /> 
<circle cx="17287" cy="3023" r="216.315" /> 
</g> 
</svg>
